<svg width="369" height="109" viewBox="0 0 369 109" fill="none" xmlns="http://www.w3.org/2000/svg">
<rect width="369" height="109" fill="none"/>
<path d="M84.5971 9H8L17.8201 24.7122H63.6475C61.0288 31.0408 49.3755 45.1381 31.5683 53.518L33.5324 44.3525L50.554 33.223H21.7482L8 75.777C67.7065 72.1108 83.9424 29.7314 84.5971 9Z" fill="#120D34"/>
<path d="M25.6763 82.3237L20.4388 100C75.9554 92.1439 101.182 51.3357 105.547 31.9137H88.5252C69.6705 70.1468 38.5516 81.4508 25.6763 82.3237Z" fill="url(#paint0_linear_1_2)"/>
<path d="M125.842 30.6043H148.101C150.938 30.1679 156.742 30.7353 157.266 36.4964C157.79 42.2576 157.484 52.4269 157.266 56.7914C156.612 58.9736 153.862 63.3381 148.101 63.3381C142.34 63.3381 130.861 63.3381 125.842 63.3381M163.813 30.6043H195.237M163.813 45.6619H195.237M163.813 63.3381H195.237M235.827 30.6043H210.95C208.767 30.8226 204.403 33.0921 204.403 40.4245C204.403 47.7568 204.403 54.3909 204.403 56.7914C205.058 58.9736 207.283 63.3381 210.95 63.3381C214.616 63.3381 229.062 63.3381 235.827 63.3381V51.554C234.736 49.5899 231.768 45.6619 228.626 45.6619C225.483 45.6619 219.897 45.6619 217.496 45.6619M244.338 65.3022V45.6619M269.216 45.6619C271.311 45.6619 272.707 42.1703 273.144 40.4245V30.6043H249.576L244.338 36.4964V45.6619M269.216 45.6619C267.121 45.6619 251.758 45.6619 244.338 45.6619M269.216 45.6619L273.144 48.2806L274.453 51.554V65.3022" stroke="#120D34" stroke-width="3"/>
<path d="M319.626 65.3022V29.295M328.137 65.3022V31.259H332.719L357.597 63.3381H361.525V29.295M283.619 65.3022V38.4604L284.928 34.5324L288.201 31.259H305.223L308.496 34.5324L310.46 38.4604V65.3022" stroke="#120D34" stroke-width="3"/>
<defs>
<linearGradient id="paint0_linear_1_2" x1="62.9928" y1="31.9137" x2="62.9928" y2="100" gradientUnits="userSpaceOnUse">
<stop stop-color="#812ABC"/>
<stop offset="0.586179" stop-color="#E4319E"/>
</linearGradient>
</defs>
</svg>
